# 3ds Max Wavefront OBJ Exporter v0.97b - (c)2007 guruware
# File Created: 20.10.2021 11:58:26

mtllib Hair.mtl

#
# object Hair
#

v  7.564376831055 126.374801635742 0.856275320053
v  4.886734008789 130.489410400391 -0.909400761127
v  2.101013183594 129.290878295898 -0.572114646435
v  4.705657958984 125.417984008789 0.981562197208
v  -0.936470031738 129.272857666016 1.831655740738
v  -4.476921081543 125.954254150391 4.325516223907
v  -6.753166198730 126.667343139648 2.399595260620
v  -3.502609252930 129.883529663086 0.289315968752
v  7.164924621582 127.597412109375 1.745124459267
v  3.627815246582 130.817413330078 -0.887229263783
v  1.087753295898 128.203872680664 -1.041233420372
v  4.587471008301 125.781433105469 1.280915379524
v  -5.507194519043 118.349075317383 3.047033786774
v  -7.786926269531 119.774581909180 2.448837041855
v  -5.683311462402 127.579727172852 2.777321100235
v  -1.024230957031 125.892532348633 4.271283149719
v  -2.801559448242 131.305343627930 2.259889602661
v  -1.407325744629 129.210891723633 3.759291648865
v  -1.674057006836 125.137863159180 6.210880756378
v  0.921134948730 130.655441284180 5.687570095062
v  -5.059875488281 126.106765747070 1.140887141228
v  -2.793388366699 131.146530151367 -0.293036013842
v  7.641601562500 120.328765869141 1.499410152435
v  9.087493896484 122.042144775391 1.554752111435
v  5.493927001953 128.728012084961 -0.530329287052
v  2.726646423340 127.235702514648 -0.885556936264
v  3.202346801758 130.247970581055 0.000128087442
v  2.096160888672 129.006698608398 -0.284167528152
v  -7.091743469238 123.998413085938 4.844191551208
v  -5.647666931152 121.837783813477 4.331525802612
v  -4.192695617676 129.614807128906 2.891748666763
v  -0.789710998535 126.705093383789 1.503246903419
v  -1.814163208008 130.769027709961 1.866304993629
v  -0.363494873047 128.832901000977 0.897287726402
v  11.618736267090 116.315872192383 -1.911161422729
v  7.251380920410 113.116760253906 -2.031019210815
v  8.632156372070 128.988937377930 -0.287117540836
v  -0.375396728516 125.632064819336 -0.200227260590
v  4.373901367188 132.718078613281 -0.060120537877
v  -0.211418151855 130.026214599609 0.637134253979
v  -6.005683898926 123.187225341797 5.511025905609
v  -4.047157287598 121.465927124023 5.044405460358
v  -4.781890869141 129.251144409180 3.167578458786
v  -0.759582519531 127.282760620117 1.781567454338
v  -2.831253051758 130.938156127930 1.988552093506
v  -0.939285278320 129.407958984375 1.055297970772
v  7.694549560547 126.964965820313 -0.702911496162
v  3.705474853516 130.198364257813 -1.624993443489
v  1.732383728027 128.915496826172 0.317122936249
v  5.508033752441 125.849121093750 1.051367282867
v  10.296867370605 116.747787475586 -5.530004978180
v  6.731872558594 113.297470092773 -3.360038280487
v  8.000091552734 129.233322143555 -2.213335037231
v  0.657646179199 125.354690551758 2.629938602448
v  4.350257873535 132.707656860352 0.374790370464
v  1.016944885254 129.755767822266 3.363553047180
v  -6.669418334961 128.374374389648 0.635387659073
v  -3.843078613281 126.085311889648 4.702241420746
v  -1.146789550781 126.985137939453 3.553616285324
v  -3.799774169922 128.872848510742 -0.288465619087
v  1.445297241211 126.162017822266 4.642651557922
v  0.396881103516 130.904937744141 0.919930756092
v  -4.586128234863 124.875076293945 4.913125038147
v  -6.334297180176 128.796829223633 1.150713205338
v  -3.946212768555 121.518188476563 6.455746650696
v  -4.486343383789 120.039520263672 4.325436592102
v  -2.987022399902 127.908126831055 5.038421630859
v  -3.792541503906 126.466613769531 0.651175737381
v  -2.682777404785 129.807220458984 2.954620838165
v  -3.559295654297 128.704895019531 0.761762738228
v  -0.797927856445 124.136947631836 6.384973049164
v  -1.870307922363 122.543090820313 5.458084583282
v  -1.467239379883 128.828308105469 3.952387809753
v  -3.652427673340 126.797012329102 1.639966726303
v  -2.336189270020 129.880874633789 2.121844768524
v  -3.707595825195 128.564224243164 1.233179926872
v  -1.993530273438 124.075180053711 5.912932872772
v  -2.944412231445 127.821090698242 7.108651638031
v  -2.689361572266 125.051742553711 2.012425899506
v  -3.370323181152 128.724273681641 2.551601886749
v  -5.261062622070 117.312133789063 -15.397252082825
v  -2.886962890625 113.568634033203 -12.287209510803
v  -2.289237976074 129.577545166016 -11.806736946106
v  2.869987487793 125.086502075195 -5.052057743073
v  0.281440734863 132.717651367188 -7.854278564453
v  3.451393127441 129.523376464844 -4.937863826752
v  -8.155715942383 117.317474365234 -13.736266136169
v  -4.860923767090 113.571456909180 -11.630506515503
v  -4.132194519043 129.580032348633 -11.368789672852
v  3.027114868164 125.083526611328 -6.792894363403
v  -0.363151550293 132.716888427734 -8.532399177551
v  3.613212585449 129.520401000977 -6.880537033081
v  -3.434219360352 123.133514404297 -15.295041084290
v  -0.748710632324 120.230331420898 -6.664593696594
v  -2.553039550781 132.309524536133 -12.702048301697
v  0.726524353027 130.880020141602 -4.600937366486
v  0.903244018555 123.418472290039 -15.626584053040
v  -1.646080017090 120.040252685547 -7.128720283508
v  0.081932067871 132.436111450195 -12.511063575745
v  -1.696327209473 130.544326782227 -4.044305801392
v  2.935050964355 122.771102905273 -12.645105361938
v  1.729904174805 130.361251831055 -8.396536827087
v  -2.966819763184 129.310028076172 -7.308280944824
v  -1.856758117676 122.505157470703 -11.570618629456
v  2.303230285645 121.902496337891 -13.866087913513
v  1.215728759766 129.258987426758 -9.195705413818
v  -3.282112121582 127.932403564453 -7.659909725189
v  -2.326751708984 121.355361938477 -12.300587654114
# 108 vertices

vn -0.060874532908 0.344779789448 0.936707615852
vn -0.046099349856 0.368444174528 0.928506195545
vn -0.053937643766 0.355936706066 0.932952165604
vn -0.060874532908 0.344779789448 0.936707615852
vn -0.053937643766 0.355936706066 0.932952165604
vn -0.069480627775 0.330822974443 0.941131532192
vn 0.255727767944 -0.713169753551 -0.652680873871
vn 0.276179432869 -0.748085379601 -0.603401422501
vn 0.265961706638 -0.730782032013 -0.628666877747
vn 0.255727767944 -0.713169753551 -0.652680873871
vn 0.265961706638 -0.730782032013 -0.628666877747
vn 0.243670672178 -0.692086100578 -0.679442107677
vn 0.370783984661 -0.308746904135 -0.875896453857
vn 0.371413767338 -0.305861026049 -0.876641809940
vn 0.371148884296 -0.307077050209 -0.876328825951
vn 0.371148884296 -0.307077050209 -0.876328825951
vn 0.371413767338 -0.305861026049 -0.876641809940
vn 0.371902257204 -0.303609609604 -0.877217113972
vn -0.239794164896 0.023783037439 0.970532417297
vn -0.261212825775 0.023212786764 0.965002059937
vn -0.247901961207 0.145428270102 0.957807481289
vn -0.247901961207 0.145428270102 0.957807481289
vn -0.261212825775 0.023212786764 0.965002059937
vn -0.315831124783 0.115626126528 0.941743731499
vn -0.247901961207 0.145428270102 0.957807481289
vn -0.315831124783 0.115626126528 0.941743731499
vn -0.336226910353 0.229053974152 0.913501918316
vn -0.336226910353 0.229053974152 0.913501918316
vn -0.315831124783 0.115626126528 0.941743731499
vn -0.714067637920 0.025506582111 0.699611961842
vn -0.727212369442 0.395269095898 0.561181366444
vn -0.730498313904 0.431159943342 0.529597282410
vn -0.730848550797 0.436491012573 0.524724721909
vn -0.730498313904 0.431159943342 0.529597282410
vn -0.732177495956 0.469634354115 0.493314981461
vn -0.730848550797 0.436491012573 0.524724721909
vn -0.232861474156 0.171776667237 0.957219064236
vn -0.238230854273 0.170154333115 0.956187009811
vn -0.121388114989 -0.015151784755 0.992489457130
vn -0.232861474156 0.171776667237 0.957219064236
vn -0.121388114989 -0.015151784755 0.992489457130
vn -0.088927052915 -0.055992960930 0.994463086128
vn -0.088927052915 -0.055992960930 0.994463086128
vn -0.121388114989 -0.015151784755 0.992489457130
vn 0.049484275281 -0.288924634457 0.956072092056
vn -0.088927052915 -0.055992960930 0.994463086128
vn 0.049484275281 -0.288924634457 0.956072092056
vn 0.084403529763 -0.293324112892 0.952279925346
vn 0.441228717566 0.082878924906 0.893559336662
vn 0.439542591572 0.083340197802 0.894347071648
vn 0.417535334826 0.054678015411 0.907014071941
vn 0.417535334826 0.054678015411 0.907014071941
vn 0.439542591572 0.083340197802 0.894347071648
vn 0.471464902163 0.069249711931 0.879161715508
vn 0.417535334826 0.054678015411 0.907014071941
vn 0.471464902163 0.069249711931 0.879161715508
vn 0.455795347691 0.035444587469 0.889378607273
vn 0.455795347691 0.035444587469 0.889378607273
vn 0.471464902163 0.069249711931 0.879161715508
vn 0.634620487690 0.091420903802 0.767397582531
vn -0.056188728660 0.113870307803 -0.991905450821
vn -0.054359555244 0.113724231720 -0.992024123669
vn -0.039996020496 0.080132916570 -0.995981454849
vn -0.039996020496 0.080132916570 -0.995981454849
vn -0.054359555244 0.113724231720 -0.992024123669
vn -0.090812712908 0.112249314785 -0.989521682262
vn -0.039996020496 0.080132916570 -0.995981454849
vn -0.090812712908 0.112249314785 -0.989521682262
vn -0.080750241876 0.073775336146 -0.994000315666
vn -0.080750241876 0.073775336146 -0.994000315666
vn -0.090812712908 0.112249314785 -0.989521682262
vn -0.255773156881 0.190169394016 -0.947847962379
vn 0.426651269197 0.249815687537 0.869229972363
vn 0.424925684929 0.249853879213 0.870063900948
vn 0.411811381578 0.217134714127 0.885021984577
vn 0.411811381578 0.217134714127 0.885021984577
vn 0.424925684929 0.249853879213 0.870063900948
vn 0.459041804075 0.243963539600 0.854261338711
vn 0.411811381578 0.217134714127 0.885021984577
vn 0.459041804075 0.243963539600 0.854261338711
vn 0.453346639872 0.207851290703 0.866761028767
vn 0.453346639872 0.207851290703 0.866761028767
vn 0.459041804075 0.243963539600 0.854261338711
vn 0.607088208199 0.302454203367 0.734823286533
vn 0.318746924400 0.583826541901 0.746690630913
vn 0.322549819946 0.605428695679 0.727610886097
vn 0.320567607880 0.594039559364 0.737803101540
vn 0.318746924400 0.583826541901 0.746690630913
vn 0.320567607880 0.594039559364 0.737803101540
vn 0.316401064396 0.570980668068 0.757542967796
vn -0.588958919048 0.104535773396 -0.801373600960
vn -0.587479650974 0.104496501386 -0.802463769913
vn -0.575789511204 0.071782089770 -0.814440786839
vn -0.575789511204 0.071782089770 -0.814440786839
vn -0.587479650974 0.104496501386 -0.802463769913
vn -0.616669595242 0.100902058184 -0.780728757381
vn -0.575789511204 0.071782089770 -0.814440786839
vn -0.616669595242 0.100902058184 -0.780728757381
vn -0.608616650105 0.063058182597 -0.790954768658
vn -0.608616650105 0.063058182597 -0.790954768658
vn -0.616669595242 0.100902058184 -0.780728757381
vn -0.736806809902 0.169262662530 -0.654573023319
vn -0.029601180926 0.879615187645 0.474764019251
vn -0.061676546931 0.850852191448 0.521772563457
vn -0.045462619513 0.865852534771 0.498229384422
vn -0.029601180926 0.879615187645 0.474764019251
vn -0.045462619513 0.865852534771 0.498229384422
vn -0.011362081394 0.894334614277 0.447254478931
vn -0.092878706753 0.601971864700 0.793097317219
vn -0.131967738271 0.620813667774 0.772770881653
vn -0.137841030955 0.623533606529 0.769548952579
vn -0.131967738271 0.620813667774 0.772770881653
vn -0.174771472812 0.639959990978 0.748268723488
vn -0.137841030955 0.623533606529 0.769548952579
vn 0.976492226124 -0.174613535404 -0.126384392381
vn 0.976697564125 -0.174824073911 -0.124492503703
vn 0.971525609493 -0.209873259068 -0.109960190952
vn 0.971525609493 -0.209873259068 -0.109960190952
vn 0.976697564125 -0.174824073911 -0.124492503703
vn 0.971024572849 -0.175581276417 -0.162118688226
vn 0.971525609493 -0.209873259068 -0.109960190952
vn 0.971024572849 -0.175581276417 -0.162118688226
vn 0.964551925659 -0.213116347790 -0.155630931258
vn 0.964551925659 -0.213116347790 -0.155630931258
vn 0.971024572849 -0.175581276417 -0.162118688226
vn 0.938909828663 -0.081318862736 -0.334418237209
vn 0.788607239723 -0.190621763468 -0.584604084492
vn 0.789778411388 -0.190339669585 -0.583113074303
vn 0.797861874104 -0.220561847091 -0.561042666435
vn 0.797861874104 -0.220561847091 -0.561042666435
vn 0.789778411388 -0.190339669585 -0.583113074303
vn 0.765882909298 -0.200734257698 -0.610842943192
vn 0.797861874104 -0.220561847091 -0.561042666435
vn 0.765882909298 -0.200734257698 -0.610842943192
vn 0.769116938114 -0.235427454114 -0.594165802002
vn 0.769116938114 -0.235427454114 -0.594165802002
vn 0.765882909298 -0.200734257698 -0.610842943192
vn 0.637163102627 -0.153945043683 -0.755198061466
vn -0.956016063690 -0.275132089853 0.101664260030
vn -0.968810796738 -0.234829977155 0.079123280942
vn -0.970548689365 -0.228700503707 0.075705476105
vn -0.968810796738 -0.234829977155 0.079123280942
vn -0.980352818966 -0.189709037542 0.054026398808
vn -0.970548689365 -0.228700503707 0.075705476105
vn -0.788407087326 0.010977175087 0.615055918694
vn -0.789533257484 0.011062678881 0.613608062267
vn -0.800753235817 -0.020565323532 0.598641276360
vn -0.800753235817 -0.020565323532 0.598641276360
vn -0.789533257484 0.011062678881 0.613608062267
vn -0.766924679279 0.005041821860 0.641717314720
vn -0.800753235817 -0.020565323532 0.598641276360
vn -0.766924679279 0.005041821860 0.641717314720
vn -0.776134192944 -0.032019902021 0.629754245281
vn -0.776134192944 -0.032019902021 0.629754245281
vn -0.766924679279 0.005041821860 0.641717314720
vn -0.639896512032 0.064142525196 0.765779435635
vn -0.530178487301 0.010273629799 0.847823798656
vn -0.531732738018 0.010360321030 0.846848845482
vn -0.547404646873 -0.021255854517 0.836598098278
vn -0.547404646873 -0.021255854517 0.836598098278
vn -0.531732738018 0.010360321030 0.846848845482
vn -0.500867128372 0.004317475483 0.865513443947
vn -0.547404646873 -0.021255854517 0.836598098278
vn -0.500867128372 0.004317475483 0.865513443947
vn -0.513621985912 -0.032734874636 0.857391893864
vn -0.513621985912 -0.032734874636 0.857391893864
vn -0.500867128372 0.004317475483 0.865513443947
vn -0.339025855064 0.063325598836 0.938643336296
vn -0.954141914845 0.007057768293 0.299271434546
vn -0.940185725689 0.029203724116 0.339408189058
vn -0.937891840935 0.032540373504 0.345398306847
vn -0.940185725689 0.029203724116 0.339408189058
vn -0.922269999981 0.053575795144 0.382815420628
vn -0.937891840935 0.032540373504 0.345398306847
vn -0.958925187588 0.010596163571 -0.283461183310
vn -0.969978690147 0.030454268679 -0.241275548935
vn -0.971453547478 0.033445373178 -0.234860375524
vn -0.969978690147 0.030454268679 -0.241275548935
vn -0.979595124722 0.052297070622 -0.194057643414
vn -0.971453547478 0.033445373178 -0.234860375524
vn 0.244767397642 -0.470843493938 0.847582042217
vn 0.294112592936 -0.430850476027 0.853150427341
vn 0.269270479679 -0.451324671507 0.850764036179
vn 0.244767397642 -0.470843493938 0.847582042217
vn 0.269270479679 -0.451324671507 0.850764036179
vn 0.216348737478 -0.492667883635 0.842894792557
vn 0.356533169746 -0.489071786404 0.796048283577
vn 0.404289364815 -0.446876168251 0.798029959202
vn 0.380307793617 -0.468474209309 0.797432065010
vn 0.356533169746 -0.489071786404 0.796048283577
vn 0.380307793617 -0.468474209309 0.797432065010
vn 0.328813284636 -0.512112498283 0.793487668037
# 192 vertex normals

vt 0.228499993682 0.209000006318 0.000000000000
vt 0.000000000000 0.204099997878 0.000000000000
vt 0.045200001448 0.028000000864 0.000000000000
vt 0.248300001025 0.044700000435 0.000000000000
vt 0.513700008392 0.416399985552 0.000000000000
vt 0.603399991989 0.414700001478 0.000000000000
vt 0.657899975777 0.597500026226 0.000000000000
vt 0.504899978638 0.641499996185 0.000000000000
vt 0.628000020981 0.680100023746 0.000000000000
vt 0.561200022697 0.687200009823 0.000000000000
vt 0.705299973488 0.648500025272 0.000000000000
vt 0.856500029564 0.653800010681 0.000000000000
vt 0.696200013161 0.889800012112 0.000000000000
vt 0.856500029564 0.884000003338 0.000000000000
vt 0.513700008392 0.416399985552 0.000000000000
vt 0.603399991989 0.414700001478 0.000000000000
vt 0.657899975777 0.597500026226 0.000000000000
vt 0.504899978638 0.641499996185 0.000000000000
vt 0.628000020981 0.680100023746 0.000000000000
vt 0.561200022697 0.687200009823 0.000000000000
vt 0.603399991989 0.414700001478 0.000000000000
vt 0.513700008392 0.416399985552 0.000000000000
vt 0.657899975777 0.597500026226 0.000000000000
vt 0.504899978638 0.641499996185 0.000000000000
vt 0.628000020981 0.680100023746 0.000000000000
vt 0.561200022697 0.687200009823 0.000000000000
vt 0.603399991989 0.414700001478 0.000000000000
vt 0.513700008392 0.416399985552 0.000000000000
vt 0.657899975777 0.597500026226 0.000000000000
vt 0.504899978638 0.641499996185 0.000000000000
vt 0.628000020981 0.680100023746 0.000000000000
vt 0.561200022697 0.687200009823 0.000000000000
vt 0.603399991989 0.414700001478 0.000000000000
vt 0.513700008392 0.416399985552 0.000000000000
vt 0.657899975777 0.597500026226 0.000000000000
vt 0.504899978638 0.641499996185 0.000000000000
vt 0.628000020981 0.680100023746 0.000000000000
vt 0.561200022697 0.687200009823 0.000000000000
vt 0.228499993682 0.209000006318 0.000000000000
vt 0.000000000000 0.204099997878 0.000000000000
vt 0.045200001448 0.028000000864 0.000000000000
vt 0.248300001025 0.044700000435 0.000000000000
vt 0.603399991989 0.414700001478 0.000000000000
vt 0.513700008392 0.416399985552 0.000000000000
vt 0.657899975777 0.597500026226 0.000000000000
vt 0.504899978638 0.641499996185 0.000000000000
vt 0.628000020981 0.680100023746 0.000000000000
vt 0.561200022697 0.687200009823 0.000000000000
vt 0.228499993682 0.209000006318 0.000000000000
vt 0.000000000000 0.204099997878 0.000000000000
vt 0.045200001448 0.028000000864 0.000000000000
vt 0.248300001025 0.044700000435 0.000000000000
vt 0.705299973488 0.648500025272 0.000000000000
vt 0.856500029564 0.653800010681 0.000000000000
vt 0.696200013161 0.889800012112 0.000000000000
vt 0.856500029564 0.884000003338 0.000000000000
vt 0.603399991989 0.414700001478 0.000000000000
vt 0.513700008392 0.416399985552 0.000000000000
vt 0.657899975777 0.597500026226 0.000000000000
vt 0.504899978638 0.641499996185 0.000000000000
vt 0.628000020981 0.680100023746 0.000000000000
vt 0.561200022697 0.687200009823 0.000000000000
vt 0.603399991989 0.414700001478 0.000000000000
vt 0.513700008392 0.416399985552 0.000000000000
vt 0.657899975777 0.597500026226 0.000000000000
vt 0.504899978638 0.641499996185 0.000000000000
vt 0.628000020981 0.680100023746 0.000000000000
vt 0.561200022697 0.687200009823 0.000000000000
vt 0.705299973488 0.648500025272 0.000000000000
vt 0.856500029564 0.653800010681 0.000000000000
vt 0.696200013161 0.889800012112 0.000000000000
vt 0.856500029564 0.884000003338 0.000000000000
vt 0.603399991989 0.414700001478 0.000000000000
vt 0.513700008392 0.416399985552 0.000000000000
vt 0.657899975777 0.597500026226 0.000000000000
vt 0.504899978638 0.641499996185 0.000000000000
vt 0.628000020981 0.680100023746 0.000000000000
vt 0.561200022697 0.687200009823 0.000000000000
vt 0.603399991989 0.414700001478 0.000000000000
vt 0.513700008392 0.416399985552 0.000000000000
vt 0.657899975777 0.597500026226 0.000000000000
vt 0.504899978638 0.641499996185 0.000000000000
vt 0.628000020981 0.680100023746 0.000000000000
vt 0.561200022697 0.687200009823 0.000000000000
vt 0.705299973488 0.648500025272 0.000000000000
vt 0.856500029564 0.653800010681 0.000000000000
vt 0.696200013161 0.889800012112 0.000000000000
vt 0.856500029564 0.884000003338 0.000000000000
vt 0.705299973488 0.648500025272 0.000000000000
vt 0.856500029564 0.653800010681 0.000000000000
vt 0.696200013161 0.889800012112 0.000000000000
vt 0.856500029564 0.884000003338 0.000000000000
vt 0.228499993682 0.209000006318 0.000000000000
vt 0.000000000000 0.204099997878 0.000000000000
vt 0.045200001448 0.028000000864 0.000000000000
vt 0.248300001025 0.044700000435 0.000000000000
vt 0.228499993682 0.209000006318 0.000000000000
vt 0.000000000000 0.204099997878 0.000000000000
vt 0.045200001448 0.028000000864 0.000000000000
vt 0.248300001025 0.044700000435 0.000000000000
# 100 texture coords

g Hair
usemtl Hair
s 1
f 1/1/1 2/2/2 3/3/3 
f 1/1/4 3/3/5 4/4/6 
f 5/1/7 6/2/8 7/3/9 
f 5/1/10 7/3/11 8/4/12 
f 10/2/13 9/1/14 11/3/15 
f 11/3/16 9/1/17 12/4/18 
f 14/6/19 13/5/20 15/7/21 
f 15/7/22 13/5/23 16/8/24 
f 15/7/25 16/8/26 17/9/27 
f 17/9/28 16/8/29 18/10/30 
f 19/11/31 20/12/32 21/13/33 
f 20/12/34 22/14/35 21/13/36 
f 23/15/37 24/16/38 25/17/39 
f 23/15/40 25/17/41 26/18/42 
f 26/18/43 25/17/44 27/19/45 
f 26/18/46 27/19/47 28/20/48 
f 29/21/49 30/22/50 31/23/51 
f 31/23/52 30/22/53 32/24/54 
f 31/23/55 32/24/56 33/25/57 
f 33/25/58 32/24/59 34/26/60 
f 35/27/61 36/28/62 37/29/63 
f 37/29/64 36/28/65 38/30/66 
f 37/29/67 38/30/68 39/31/69 
f 39/31/70 38/30/71 40/32/72 
f 41/33/73 42/34/74 43/35/75 
f 43/35/76 42/34/77 44/36/78 
f 43/35/79 44/36/80 45/37/81 
f 45/37/82 44/36/83 46/38/84 
f 47/39/85 48/40/86 49/41/87 
f 47/39/88 49/41/89 50/42/90 
f 51/43/91 52/44/92 53/45/93 
f 53/45/94 52/44/95 54/46/96 
f 53/45/97 54/46/98 55/47/99 
f 55/47/100 54/46/101 56/48/102 
f 57/49/103 58/50/104 59/51/105 
f 57/49/106 59/51/107 60/52/108 
f 61/53/109 62/54/110 63/55/111 
f 62/54/112 64/56/113 63/55/114 
f 65/57/115 66/58/116 67/59/117 
f 67/59/118 66/58/119 68/60/120 
f 67/59/121 68/60/122 69/61/123 
f 69/61/124 68/60/125 70/62/126 
f 71/63/127 72/64/128 73/65/129 
f 73/65/130 72/64/131 74/66/132 
f 73/65/133 74/66/134 75/67/135 
f 75/67/136 74/66/137 76/68/138 
f 77/69/139 78/70/140 79/71/141 
f 78/70/142 80/72/143 79/71/144 
f 81/73/145 82/74/146 83/75/147 
f 83/75/148 82/74/149 84/76/150 
f 83/75/151 84/76/152 85/77/153 
f 85/77/154 84/76/155 86/78/156 
f 87/79/157 88/80/158 89/81/159 
f 89/81/160 88/80/161 90/82/162 
f 89/81/163 90/82/164 91/83/165 
f 91/83/166 90/82/167 92/84/168 
f 93/85/169 94/86/170 95/87/171 
f 94/86/172 96/88/173 95/87/174 
f 97/89/175 98/90/176 99/91/177 
f 98/90/178 100/92/179 99/91/180 
f 101/93/181 102/94/182 103/95/183 
f 101/93/184 103/95/185 104/96/186 
f 105/97/187 106/98/188 107/99/189 
f 105/97/190 107/99/191 108/100/192 
# 0 polygons - 64 triangles

